#!OML:ASF X:\für Bonn\!DataBase\2005_08_12_Daniel\c3d\Daniel.ASF
:FULLY-SPECIFIED
:DEGREES
1
root 6.46134 15.7223 -0.403017 154.367 -106.281 -150.798
lowerback 7.65084 -12.0995 -12.3446
upperback 1.39004 -17.1888 -2.51108
thorax 0.0336418 -8.63654 4.76186
lowerneck 12.1264 10.7448 4.19269
upperneck 0.345972 14.5258 -4.9558
head -1.23435 7.32876 -2.90917
rclavicle -2.17669e-014 1.43125e-014
rhumerus -44.314 -6.84219 -84.8843
rradius 44.8182
rwrist 13.7455
rhand -24.601 29.4948
rfingers 7.12502
rthumb 1.89695 -0.476491
lclavicle -2.17669e-014 1.43125e-014
lhumerus -4.97529 -4.19753 71.5731
lradius 114.289
lwrist 11.0256
lhand -22.0444 -22.178
lfingers 7.12502
lthumb 4.36594 7.75701
rfemur -51.2076 -8.10681 14.5227
rtibia 70.1046
rfoot -22.7638 -2.22429
rtoes -5.62412
lfemur 16.9626 -12.0326 -29.332
ltibia 32.6629
lfoot -39.3785 9.35886
ltoes -21.7569
2
root 6.45647 15.6983 -0.401746 153.519 -106.158 -149.853
lowerback 7.69561 -12.1787 -12.7116
upperback 1.23311 -17.3419 -2.50449
thorax -0.0266342 -8.70274 4.95842
lowerneck 11.7642 10.9636 4.50573
upperneck 0.523836 14.852 -5.12525
head -1.05891 7.49568 -2.9815
rclavicle 4.28381e-014 -3.97569e-015
rhumerus -44.8209 -6.19009 -84.7655
rradius 46.2802
rwrist 13.4106
rhand -24.7688 29.748
rfingers 7.12502
rthumb 1.73484 -0.224702
lclavicle 4.28381e-014 -3.97569e-015
lhumerus -6.53872 -3.59606 71.2439
lradius 114.07
lwrist 10.9794
lhand -21.9562 -22.169
lfingers 7.12502
lthumb 4.45105 7.76427
rfemur -51.6757 -8.4301 14.5723
rtibia 70.4842
rfoot -22.7056 -2.18166
rtoes -6.04851
lfemur 17.1314 -12.028 -29.5767
ltibia 32.4431
lfoot -39.3605 9.34325
ltoes -21.1919
3
root 6.44422 15.681 -0.401791 152.962 -106.021 -149.232
lowerback 7.71177 -12.2792 -13.0109
upperback 1.09235 -17.5111 -2.46743
thorax -0.0596661 -8.77875 5.14281
lowerneck 11.3914 11.1937 4.82311
upperneck 0.746744 15.1908 -5.32452
head -0.862248 7.66905 -3.05918
rclavicle -1.08139e-013 -8.74653e-015
rhumerus -45.2739 -5.5036 -84.5706
rradius 47.7262
rwrist 13.2248
rhand -24.8876 30.0188
rfingers 7.12502
rthumb 1.62014 0.0452072
lclavicle -1.08139e-013 -8.74653e-015
lhumerus -8.2936 -2.97075 70.8676
lradius 113.874
lwrist 11.0228
lhand -21.9986 -22.1855
lfingers 7.12502
lthumb 4.41008 7.74862
rfemur -52.0205 -8.77547 14.7522
rtibia 70.7615
rfoot -22.6711 -2.21405
rtoes -6.58028
lfemur 17.287 -11.9942 -29.6649
ltibia 32.2737
lfoot -39.1936 9.19384
ltoes -20.6401
4
root 6.42439 15.6714 -0.402786 152.726 -105.818 -148.959
lowerback 7.6964 -12.3854 -13.1728
upperback 0.955101 -17.6711 -2.41698
thorax -0.107392 -8.84901 5.27142
lowerneck 11.0282 11.438 5.11415
upperneck 0.984914 15.5442 -5.49028
head -0.664631 7.84835 -3.12025
rclavicle 9.71063e-014 7.95139e-016
rhumerus -45.7127 -4.86427 -84.2785
rradius 49.1749
rwrist 13.2046
rhand -24.894 30.3048
rfingers 7.12502
rthumb 1.6139 0.331139
lclavicle 9.71063e-014 7.95139e-016
lhumerus -10.2011 -2.33954 70.4094
lradius 113.624
lwrist 11.096
lhand -22.235 -22.241
lfingers 7.12502
lthumb 4.18181 7.69767
rfemur -52.2382 -9.10979 15.0947
rtibia 70.9304
rfoot -22.6693 -2.33182
rtoes -7.17329
lfemur 17.4095 -11.9321 -29.5956
ltibia 32.1754
lfoot -38.8522 8.94398
ltoes -19.998
5
root 6.39469 15.6679 -0.404509 152.649 -105.586 -148.898
lowerback 7.67921 -12.4897 -13.2562
upperback 0.796926 -17.8234 -2.35437
thorax -0.195896 -8.9118 5.38074
lowerneck 10.7119 11.6868 5.31669
upperneck 1.27743 15.8927 -5.5959
head -0.468329 8.02261 -3.14737
rclavicle -4.17448e-015 2.14687e-014
rhumerus -46.1634 -4.18047 -83.8703
rradius 50.6117
rwrist 13.2935
rhand -24.852 30.4552
rfingers 7.12502
rthumb 1.6545 0.481887
lclavicle -4.17448e-015 2.14687e-014
lhumerus -12.3421 -1.69251 69.9567
lradius 113.304
lwrist 11.1378
lhand -22.5967 -22.3467
lfingers 7.12502
lthumb 3.83253 7.59863
rfemur -52.272 -9.47976 15.5408
rtibia 71.0023
rfoot -22.7291 -2.4786
rtoes -7.73402
lfemur 17.5302 -11.8127 -29.4127
ltibia 32.1708
lfoot -38.3621 8.59803
ltoes -19.2961
6
root 6.3523 15.6721 -0.406579 152.689 -105.316 -148.986
lowerback 7.61601 -12.5979 -13.2498
upperback 0.605839 -17.969 -2.28065
thorax -0.317983 -8.96769 5.45577
lowerneck 10.4438 11.9516 5.41367
upperneck 1.62055 16.2502 -5.65247
head -0.275235 8.19894 -3.1422
rclavicle -1.41535e-013 -2.14687e-014
rhumerus -46.6545 -3.42149 -83.3479
rradius 52.0592
rwrist 13.4391
rhand -24.775 30.5054
rfingers 7.12502
rthumb 1.72886 0.532657
lclavicle -1.41535e-013 -2.14687e-014
lhumerus -14.6261 -0.988182 69.4576
lradius 112.82
lwrist 11.2822
lhand -22.9173 -22.6136
lfingers 7.12502
lthumb 3.523 7.33701
rfemur -52.1409 -9.84062 16.0669
rtibia 70.9791
rfoot -22.8781 -2.68682
rtoes -8.23599
lfemur 17.6146 -11.6246 -29.1375
ltibia 32.2894
lfoot -37.7236 8.15957
ltoes -18.557
7
root 6.2998 15.6844 -0.409793 152.756 -105.018 -149.139
lowerback 7.50521 -12.6991 -13.1924
upperback 0.428696 -18.0935 -2.22324
thorax -0.423247 -9.01502 5.47968
lowerneck 10.2152 12.2116 5.46259
upperneck 1.95125 16.5965 -5.68312
head -0.0996851 8.36867 -3.12396
rclavicle 2.58818e-013 5.80451e-014
rhumerus -47.0685 -2.65267 -82.7736
rradius 53.407
rwrist 13.6236
rhand -24.7686 30.4825
rfingers 7.12502
rthumb 1.73504 0.509824
lclavicle 2.58818e-013 5.80451e-014
lhumerus -16.9405 -0.275742 68.8821
lradius 112.109
lwrist 11.429
lhand -23.2458 -22.94
lfingers 7.12502
lthumb 3.20573 7.0156
rfemur -51.8447 -10.2201 16.635
rtibia 70.8443
rfoot -23.083 -2.91375
rtoes -8.40833
lfemur 17.6386 -11.3589 -28.7889
ltibia 32.5566
lfoot -36.9565 7.63076
ltoes -17.9346
8
root 6.23866 15.7054 -0.415555 152.85 -104.667 -149.36
lowerback 7.31089 -12.7953 -13.0756
upperback 0.315387 -18.1906 -2.21411
thorax -0.453338 -9.05681 5.40083
lowerneck 9.94177 12.4748 5.53842
upperneck 2.30467 16.9497 -5.6792
head 0.0904036 8.54073 -3.09295
rclavicle -4.24405e-014 1.90833e-014
rhumerus -47.3769 -1.86886 -82.2598
rradius 54.6912
rwrist 13.8059
rhand -24.8273 30.3624
rfingers 7.12502
rthumb 1.67832 0.389255
lclavicle -4.24405e-014 1.90833e-014
lhumerus -19.1694 0.459604 68.1338
lradius 111.055
lwrist 11.647
lhand -23.4474 -23.4021
lfingers 7.12502
lthumb 3.01108 6.5564
rfemur -51.3702 -10.5627 17.2651
rtibia 70.5911
rfoot -23.3709 -3.18069
rtoes -8.33949
lfemur 17.5755 -10.9318 -28.311
ltibia 33.0089
lfoot -36.0634 7.00168
ltoes -17.4424
9
root 6.17118 15.7333 -0.425589 152.847 -104.282 -149.523
lowerback 7.05484 -12.8835 -12.964
upperback 0.270288 -18.2644 -2.2483
thorax -0.394303 -9.0958 5.25627
lowerneck 9.62417 12.7489 5.61254
upperneck 2.6397 17.3163 -5.65795
head 0.280979 8.719 -3.05213
rclavicle 6.45056e-014 -2.78299e-014
rhumerus -47.4539 -1.03729 -81.8028
rradius 55.7606
rwrist 14.015
rhand -25.0627 30.3096
rfingers 7.12502
rthumb 1.45105 0.334805
lclavicle 6.45056e-014 -2.78299e-014
lhumerus -21.3255 1.24248 67.2545
lradius 109.736
lwrist 11.9052
lhand -23.4647 -23.9145
lfingers 7.12502
lthumb 2.99432 6.04427
rfemur -50.7497 -10.8581 17.9086
rtibia 70.2213
rfoot -23.672 -3.50883
rtoes -8.09628
lfemur 17.4006 -10.3838 -27.7625
ltibia 33.6664
lfoot -35.1065 6.33534
ltoes -17.2573
10
root 6.10025 15.7665 -0.436925 152.696 -103.873 -149.586
lowerback 6.81841 -12.93 -12.8742
upperback 0.232813 -18.2875 -2.28287
thorax -0.340475 -9.10944 5.12757
lowerneck 9.33706 12.9952 5.63118
upperneck 2.95665 17.6404 -5.63703
head 0.45278 8.8755 -3.00571
rclavicle -4.80562e-014 -7.95139e-016
rhumerus -47.4114 -0.115077 -81.3152
rradius 56.7548
rwrist 14.2139
rhand -25.459 30.2075
rfingers 7.12502
rthumb 1.06829 0.230474
lclavicle -4.80562e-014 -7.95139e-016
lhumerus -23.45 1.99945 66.4333
lradius 108.152
lwrist 12.1835
lhand -23.317 -24.3674
lfingers 7.12502
lthumb 3.13693 5.58928
rfemur -50.0079 -11.2068 18.593
rtibia 69.7511
rfoot -23.9797 -3.94095
rtoes -8.29655
lfemur 17.0784 -9.69887 -27.1701
ltibia 34.5657
lfoot -34.0008 5.7505
ltoes -17.4565
11
root 6.02696 15.8068 -0.4494 152.25 -103.415 -149.425
lowerback 6.62282 -12.9282 -12.8256
upperback 0.230197 -18.2525 -2.30536
thorax -0.265147 -9.0968 5.03631
lowerneck 8.94596 13.2365 5.51641
upperneck 3.27846 17.9436 -5.59991
head 0.627704 9.01865 -2.92469
rclavicle 1.28812e-013 -2.22639e-014
rhumerus -47.1824 0.901529 -80.7845
rradius 57.708
rwrist 14.3923
rhand -25.9681 30.1322
rfingers 7.12502
rthumb 0.576529 0.153211
lclavicle 1.28812e-013 -2.22639e-014
lhumerus -25.4824 2.8188 65.688
lradius 106.289
lwrist 12.5305
lhand -22.9499 -24.7214
lfingers 7.12502
lthumb 3.49149 5.22977
rfemur -49.0569 -11.4181 19.1028
rtibia 69.1736
rfoot -24.3291 -4.06322
rtoes -7.31577
lfemur 16.6453 -8.88867 -26.5804
ltibia 35.7065
lfoot -32.7139 5.27797
ltoes -18.266
